<svg xmlns="http://www.w3.org/2000/svg" xmlns:xlink="http://www.w3.org/1999/xlink" width="500" zoomAndPan="magnify" viewBox="0 0 375 374.999991" height="500" preserveAspectRatio="xMidYMid meet" version="1.0"><defs><clipPath id="fa13ee373f"><path d="M 202 0.46875 L 375 0.46875 L 375 374.71875 L 202 374.71875 Z M 202 0.46875 " clip-rule="nonzero"/></clipPath><clipPath id="0abfc0f6b7"><path d="M 0 0.46875 L 175 0.46875 L 175 374.71875 L 0 374.71875 Z M 0 0.46875 " clip-rule="nonzero"/></clipPath></defs><g clip-path="url(#fa13ee373f)"><path fill="#004aad" d="M 373.652344 165.582031 L 247.359375 165.582031 L 247.359375 60.449219 C 248.863281 61.160156 250.355469 61.898438 251.828125 62.660156 C 252.28125 62.890625 252.726562 63.125 253.175781 63.363281 C 254.707031 64.175781 256.222656 65.015625 257.71875 65.886719 C 258.171875 66.144531 258.625 66.410156 259.074219 66.675781 C 259.511719 66.9375 259.953125 67.199219 260.386719 67.464844 C 260.789062 67.707031 261.1875 67.957031 261.585938 68.203125 C 261.863281 68.378906 262.144531 68.550781 262.425781 68.730469 C 263.917969 69.671875 265.390625 70.644531 266.847656 71.640625 C 267.09375 71.8125 267.34375 71.984375 267.59375 72.15625 C 269.824219 73.707031 272.011719 75.324219 274.148438 77.003906 C 274.4375 77.226562 274.726562 77.453125 275.011719 77.683594 C 275.570312 78.128906 276.128906 78.582031 276.679688 79.035156 C 277.082031 79.363281 277.480469 79.695312 277.871094 80.023438 C 278.292969 80.375 278.707031 80.730469 279.125 81.089844 C 279.601562 81.5 280.074219 81.914062 280.542969 82.328125 C 280.828125 82.578125 281.109375 82.832031 281.390625 83.085938 C 281.621094 83.289062 281.851562 83.5 282.082031 83.710938 C 282.34375 83.945312 282.601562 84.179688 282.855469 84.417969 C 284.871094 86.28125 286.832031 88.199219 288.734375 90.179688 C 289.066406 90.519531 289.394531 90.863281 289.722656 91.210938 C 289.792969 91.289062 289.867188 91.367188 289.9375 91.445312 C 290.265625 91.785156 290.582031 92.132812 290.902344 92.480469 C 292.238281 93.925781 293.539062 95.398438 294.8125 96.902344 C 295.039062 97.167969 295.261719 97.4375 295.488281 97.707031 C 295.75 98.019531 296.011719 98.335938 296.269531 98.652344 C 296.476562 98.902344 296.683594 99.152344 296.878906 99.40625 C 298.109375 100.921875 299.304688 102.464844 300.464844 104.035156 C 300.722656 104.375 300.972656 104.71875 301.226562 105.0625 C 303.078125 107.613281 304.851562 110.226562 306.539062 112.902344 C 306.683594 113.128906 306.832031 113.363281 306.972656 113.597656 C 307.546875 114.515625 308.113281 115.449219 308.667969 116.386719 C 308.875 116.742188 309.082031 117.097656 309.289062 117.453125 C 309.921875 118.546875 310.542969 119.648438 311.144531 120.765625 C 311.328125 121.101562 311.511719 121.4375 311.6875 121.777344 C 312.527344 123.347656 313.335938 124.9375 314.113281 126.542969 C 314.328125 126.984375 314.542969 127.429688 314.75 127.875 C 315.03125 128.464844 315.300781 129.054688 315.574219 129.648438 C 315.78125 130.109375 315.984375 130.566406 316.1875 131.027344 C 316.359375 131.414062 316.53125 131.796875 316.695312 132.1875 C 316.820312 132.472656 316.941406 132.761719 317.058594 133.046875 C 317.144531 133.234375 317.226562 133.425781 317.300781 133.621094 C 317.410156 133.875 317.519531 134.136719 317.625 134.398438 C 317.796875 134.808594 317.96875 135.226562 318.128906 135.644531 L 361.492188 117.941406 C 341.140625 67.304688 299.351562 27.589844 247.359375 10.03125 C 233.167969 5.234375 218.210938 2.09375 202.726562 0.828125 L 202.726562 210.222656 L 326.382812 210.222656 C 326.316406 210.65625 326.242188 211.09375 326.167969 211.527344 C 326.070312 212.117188 325.96875 212.710938 325.859375 213.300781 C 325.78125 213.71875 325.703125 214.140625 325.625 214.554688 C 325.523438 215.089844 325.421875 215.621094 325.308594 216.148438 C 325.226562 216.570312 325.136719 216.988281 325.050781 217.402344 C 324.953125 217.855469 324.855469 218.308594 324.753906 218.761719 C 324.699219 219 324.644531 219.238281 324.589844 219.476562 C 324.507812 219.832031 324.425781 220.1875 324.34375 220.539062 C 324.230469 221.019531 324.117188 221.496094 323.996094 221.972656 C 323.996094 221.984375 323.992188 221.996094 323.988281 222.003906 C 323.867188 222.484375 323.746094 222.960938 323.625 223.4375 C 323.550781 223.734375 323.472656 224.027344 323.390625 224.324219 C 323.351562 224.476562 323.3125 224.625 323.269531 224.773438 C 323.203125 225.019531 323.136719 225.273438 323.0625 225.519531 C 322.980469 225.835938 322.890625 226.152344 322.800781 226.464844 C 322.679688 226.894531 322.558594 227.316406 322.433594 227.738281 C 322.3125 228.15625 322.1875 228.570312 322.058594 228.980469 C 321.632812 230.386719 321.183594 231.785156 320.710938 233.175781 C 320.578125 233.570312 320.441406 233.964844 320.304688 234.359375 C 320.171875 234.75 320.03125 235.140625 319.886719 235.53125 C 319.765625 235.875 319.644531 236.210938 319.519531 236.546875 C 319.476562 236.671875 319.429688 236.796875 319.378906 236.921875 C 319.261719 237.242188 319.144531 237.558594 319.027344 237.871094 C 319.023438 237.875 319.023438 237.878906 319.023438 237.878906 C 318.875 238.265625 318.730469 238.648438 318.578125 239.035156 C 318.277344 239.808594 317.96875 240.578125 317.652344 241.34375 C 317.53125 241.648438 317.40625 241.949219 317.277344 242.25 C 317.085938 242.710938 316.890625 243.171875 316.6875 243.636719 C 316.527344 244.015625 316.359375 244.394531 316.195312 244.773438 C 315.527344 246.285156 314.835938 247.78125 314.113281 249.265625 C 313.933594 249.636719 313.753906 250.007812 313.566406 250.375 C 313.414062 250.683594 313.261719 250.992188 313.105469 251.300781 C 312.941406 251.625 312.777344 251.949219 312.609375 252.277344 C 312.421875 252.640625 312.234375 253 312.042969 253.363281 C 311.78125 253.859375 311.519531 254.363281 311.246094 254.855469 C 311.070312 255.1875 310.886719 255.523438 310.699219 255.855469 C 310.523438 256.179688 310.339844 256.507812 310.15625 256.832031 C 309.828125 257.421875 309.492188 258.011719 309.152344 258.59375 C 308.941406 258.957031 308.730469 259.316406 308.515625 259.679688 C 308.265625 260.097656 308.011719 260.519531 307.757812 260.9375 C 307.589844 261.21875 307.417969 261.496094 307.246094 261.773438 C 306.257812 263.378906 305.234375 264.96875 304.179688 266.53125 C 304.015625 266.773438 303.847656 267.019531 303.683594 267.261719 C 303.507812 267.515625 303.335938 267.765625 303.160156 268.015625 C 302.925781 268.359375 302.6875 268.695312 302.453125 269.035156 C 301.667969 270.148438 300.863281 271.25 300.046875 272.339844 C 299.847656 272.605469 299.648438 272.867188 299.449219 273.132812 C 297.914062 275.148438 296.332031 277.117188 294.691406 279.046875 C 294.390625 279.402344 294.089844 279.753906 293.78125 280.105469 C 293.480469 280.457031 293.171875 280.808594 292.863281 281.15625 C 292.097656 282.027344 291.320312 282.886719 290.53125 283.730469 C 290.292969 283.992188 290.050781 284.253906 289.804688 284.507812 C 289.433594 284.902344 289.0625 285.292969 288.6875 285.679688 C 288.300781 286.085938 287.910156 286.484375 287.515625 286.882812 C 287.019531 287.386719 286.519531 287.882812 286.019531 288.378906 C 285.738281 288.652344 285.460938 288.925781 285.179688 289.195312 C 284.117188 290.21875 283.042969 291.230469 281.953125 292.21875 C 281.382812 292.734375 280.8125 293.246094 280.234375 293.753906 C 280.097656 293.875 279.960938 293.996094 279.824219 294.113281 C 279.546875 294.355469 279.261719 294.601562 278.980469 294.839844 C 278.628906 295.144531 278.277344 295.445312 277.917969 295.746094 C 277.5625 296.046875 277.207031 296.339844 276.847656 296.636719 C 276.472656 296.945312 276.097656 297.253906 275.722656 297.554688 C 275.375 297.835938 275.027344 298.113281 274.675781 298.390625 C 274.414062 298.601562 274.144531 298.8125 273.875 299.023438 C 273.410156 299.386719 272.941406 299.746094 272.472656 300.101562 C 272.101562 300.382812 271.730469 300.664062 271.355469 300.941406 C 270.921875 301.269531 270.480469 301.589844 270.042969 301.914062 C 269.730469 302.136719 269.414062 302.363281 269.101562 302.589844 C 268.722656 302.859375 268.339844 303.128906 267.960938 303.398438 C 267.578125 303.664062 267.195312 303.929688 266.8125 304.191406 C 266.554688 304.371094 266.292969 304.546875 266.035156 304.722656 C 265.878906 304.828125 265.722656 304.933594 265.566406 305.035156 C 265.46875 305.101562 265.371094 305.167969 265.273438 305.230469 C 264.691406 305.621094 264.105469 306.007812 263.511719 306.386719 C 263.046875 306.691406 262.578125 306.984375 262.105469 307.28125 C 261.742188 307.511719 261.375 307.738281 261.003906 307.964844 C 260.964844 307.992188 260.925781 308.015625 260.886719 308.039062 C 260.511719 308.273438 260.128906 308.503906 259.746094 308.730469 C 259.347656 308.972656 258.945312 309.210938 258.542969 309.445312 C 258.199219 309.648438 257.859375 309.847656 257.515625 310.042969 C 256.347656 310.71875 255.167969 311.375 253.976562 312.015625 C 253.734375 312.148438 253.492188 312.277344 253.25 312.40625 C 253.039062 312.519531 252.832031 312.628906 252.621094 312.738281 C 252.0625 313.03125 251.503906 313.320312 250.945312 313.601562 C 250.59375 313.78125 250.246094 313.957031 249.894531 314.128906 C 249.054688 314.550781 248.210938 314.957031 247.359375 315.359375 L 247.359375 254.855469 L 202.726562 254.855469 L 202.726562 374.980469 C 218.210938 373.71875 233.167969 370.574219 247.359375 365.78125 C 300.378906 347.875 342.785156 306.929688 362.671875 254.855469 C 368.074219 240.71875 371.8125 225.761719 373.652344 210.222656 C 374.519531 202.902344 374.964844 195.457031 374.964844 187.902344 C 374.964844 180.347656 374.519531 172.90625 373.652344 165.582031 Z M 373.652344 165.582031 " fill-opacity="1" fill-rule="nonzero"/></g><g clip-path="url(#0abfc0f6b7)"><path fill="#004aad" d="M -0.4375 187.71875 C -0.4375 271.273438 54.160156 342.078125 129.621094 366.402344 C 143.832031 370.984375 158.785156 373.917969 174.257812 374.976562 L 174.257812 243.902344 L 142.820312 210.035156 L 129.621094 195.816406 L 122.105469 187.71875 L 129.621094 179.617188 L 142.816406 165.402344 L 174.257812 131.535156 L 174.257812 0.457031 C 158.785156 1.515625 143.832031 4.449219 129.621094 9.03125 C 54.160156 33.359375 -0.4375 104.160156 -0.4375 187.71875 Z M 129.621094 261.421875 L 129.621094 316.300781 C 87.0625 297.191406 55.710938 257.578125 48.144531 210.03125 L 81.917969 210.03125 L 91.65625 220.519531 Z M 129.621094 114.007812 L 91.65625 154.910156 L 81.917969 165.402344 L 48.144531 165.402344 C 55.710938 117.855469 87.0625 78.242188 129.621094 59.132812 Z M 129.621094 114.007812 " fill-opacity="1" fill-rule="nonzero"/></g></svg>